<?xml version="1.0" encoding="UTF-8"?> <svg xmlns="http://www.w3.org/2000/svg" id="Ebene_1" data-name="Ebene 1" viewBox="0 0 653.66 284"><path d="M29,273.4H23.84V246.32H14.58V241.9H38.26v4.42H29Z"></path><path d="M63.51,273.4H58.43V258.75a6.43,6.43,0,0,0-1.11-4.12,4.31,4.31,0,0,0-3.52-1.35,5.6,5.6,0,0,0-4.69,1.9q-1.5,1.9-1.5,6.39V273.4H42.55V239.87h5.06v8.51a40.34,40.34,0,0,1-.26,4.38h.33a7,7,0,0,1,2.87-2.67,9.18,9.18,0,0,1,4.3-1q8.67,0,8.66,8.73Z"></path><path d="M81,273.83q-5.56,0-8.7-3.24t-3.13-8.93q0-5.84,2.91-9.18a10,10,0,0,1,8-3.34A9.83,9.83,0,0,1,87.5,252q2.73,2.87,2.73,7.89v2.74H74.35A7.8,7.8,0,0,0,76.23,268a6.51,6.51,0,0,0,5,1.86,18.87,18.87,0,0,0,3.94-.39,21,21,0,0,0,3.91-1.33v4.12a15.89,15.89,0,0,1-3.75,1.25A23.44,23.44,0,0,1,81,273.83ZM80,253a5.09,5.09,0,0,0-3.87,1.53A7.31,7.31,0,0,0,74.44,259H85.26a6.63,6.63,0,0,0-1.43-4.47A4.87,4.87,0,0,0,80,253Z"></path><path d="M128.85,251.42a9.2,9.2,0,0,1-3.24,7.57q-3.23,2.63-9.2,2.62h-3.27V273.4H108V241.9h9.07c3.94,0,6.88.8,8.85,2.41S128.85,248.29,128.85,251.42Zm-15.71,5.86h2.74q4,0,5.81-1.38a5,5,0,0,0,1.86-4.3,4.91,4.91,0,0,0-1.66-4.06q-1.67-1.33-5.17-1.33h-3.58Z"></path><path d="M145,273.83q-5.56,0-8.7-3.24t-3.13-8.93q0-5.84,2.91-9.18a10,10,0,0,1,8-3.34,9.83,9.83,0,0,1,7.46,2.86q2.73,2.87,2.73,7.89v2.74H138.39a7.8,7.8,0,0,0,1.88,5.33,6.52,6.52,0,0,0,5,1.86,18.87,18.87,0,0,0,3.94-.39,21,21,0,0,0,3.91-1.33v4.12a15.89,15.89,0,0,1-3.75,1.25A23.36,23.36,0,0,1,145,273.83ZM144.08,253a5.09,5.09,0,0,0-3.87,1.53,7.31,7.31,0,0,0-1.73,4.46H149.3a6.63,6.63,0,0,0-1.43-4.47A4.87,4.87,0,0,0,144.08,253Z"></path><path d="M181.17,261.44c0,3.9-1,6.93-3,9.12s-4.78,3.27-8.34,3.27a11.39,11.39,0,0,1-5.9-1.51,10,10,0,0,1-4-4.33,14.72,14.72,0,0,1-1.37-6.55q0-5.79,3-9.05t8.38-3.25a10.5,10.5,0,0,1,8.19,3.33Q181.17,255.8,181.17,261.44Zm-17.35,0q0,8.25,6.1,8.25t6-8.25q0-8.16-6.08-8.16a5.18,5.18,0,0,0-4.62,2.11A10.78,10.78,0,0,0,163.82,261.44Z"></path><path d="M199.07,273.83a8.32,8.32,0,0,1-7-3.25h-.31c.21,2,.31,3.23.31,3.66V284H187V249.57h4.1c.11.44.35,1.51.71,3.19h.26a7.92,7.92,0,0,1,7.11-3.62,8.29,8.29,0,0,1,7,3.23q2.47,3.24,2.48,9.07c0,3.9-.84,6.93-2.53,9.12A8.36,8.36,0,0,1,199.07,273.83Zm-1.23-20.55a5.23,5.23,0,0,0-4.4,1.76q-1.4,1.77-1.39,5.65v.75c0,2.9.46,5,1.38,6.3s2.42,1.95,4.5,1.95a4.56,4.56,0,0,0,4-2.15,11.11,11.11,0,0,0,1.42-6.14,10.78,10.78,0,0,0-1.41-6.07A4.7,4.7,0,0,0,197.84,253.28Z"></path><path d="M219.54,273.4h-5.06V239.87h5.06Z"></path><path d="M237.19,273.83q-5.56,0-8.7-3.24t-3.13-8.93q0-5.84,2.91-9.18a10,10,0,0,1,8-3.34,9.83,9.83,0,0,1,7.46,2.86q2.73,2.87,2.73,7.89v2.74H230.57a7.85,7.85,0,0,0,1.88,5.33,6.53,6.53,0,0,0,5,1.86,18.84,18.84,0,0,0,3.93-.39,20.79,20.79,0,0,0,3.91-1.33v4.12a15.89,15.89,0,0,1-3.75,1.25A23.36,23.36,0,0,1,237.19,273.83ZM236.26,253a5.09,5.09,0,0,0-3.87,1.53,7.31,7.31,0,0,0-1.73,4.46h10.82a6.63,6.63,0,0,0-1.43-4.47A4.85,4.85,0,0,0,236.26,253Z"></path><path d="M292.18,257.61q0,7.68-3.85,12t-10.89,4.26q-7.12,0-11-4.23t-3.82-12q0-7.8,3.85-12t11-4.18q7,0,10.86,4.25T292.18,257.61Zm-24.05,0c0,3.88.79,6.82,2.35,8.82a8.32,8.32,0,0,0,7,3q4.59,0,6.93-3t2.34-8.85c0-3.87-.78-6.8-2.32-8.79s-3.85-3-6.91-3-5.42,1-7,3S268.13,253.74,268.13,257.61Z"></path><path d="M310.5,273.83a8.35,8.35,0,0,1-7-3.25h-.3q.3,3,.3,3.66V284h-5.06V249.57h4.09c.12.44.35,1.51.71,3.19h.26a7.92,7.92,0,0,1,7.11-3.62,8.28,8.28,0,0,1,6.95,3.23q2.49,3.24,2.49,9.07c0,3.9-.84,6.93-2.53,9.12A8.36,8.36,0,0,1,310.5,273.83Zm-1.23-20.55a5.27,5.27,0,0,0-4.41,1.76q-1.39,1.77-1.39,5.65v.75c0,2.9.46,5,1.38,6.3a5.1,5.1,0,0,0,4.5,1.95,4.54,4.54,0,0,0,4-2.15,11.11,11.11,0,0,0,1.43-6.14,10.78,10.78,0,0,0-1.41-6.07A4.73,4.73,0,0,0,309.27,253.28Z"></path><path d="M336.31,273.83q-5.56,0-8.7-3.24t-3.13-8.93q0-5.84,2.91-9.18a10,10,0,0,1,8-3.34,9.83,9.83,0,0,1,7.46,2.86q2.73,2.87,2.73,7.89v2.74H329.69a7.85,7.85,0,0,0,1.88,5.33,6.53,6.53,0,0,0,5,1.86,18.84,18.84,0,0,0,3.93-.39,20.79,20.79,0,0,0,3.91-1.33v4.12a15.89,15.89,0,0,1-3.75,1.25A23.36,23.36,0,0,1,336.31,273.83ZM335.38,253a5.09,5.09,0,0,0-3.87,1.53,7.31,7.31,0,0,0-1.73,4.46H340.6a6.63,6.63,0,0,0-1.43-4.47A4.85,4.85,0,0,0,335.38,253Z"></path><path d="M363.42,249.14a12.48,12.48,0,0,1,2.52.21l-.5,4.72a9.67,9.67,0,0,0-2.24-.26,6.49,6.49,0,0,0-4.92,2,7.14,7.14,0,0,0-1.89,5.15V273.4h-5.06V249.57h4l.67,4.2h.26a9.43,9.43,0,0,1,3.09-3.38A7.38,7.38,0,0,1,363.42,249.14Z"></path><path d="M385.27,273.4l-1-3.32h-.17a9.81,9.81,0,0,1-3.47,3,11,11,0,0,1-4.48.78,7.59,7.59,0,0,1-5.48-1.89,7.1,7.1,0,0,1-2-5.37,6.31,6.31,0,0,1,2.74-5.56q2.73-1.87,8.34-2.05l4.12-.13v-1.27a4.81,4.81,0,0,0-1.07-3.41,4.32,4.32,0,0,0-3.31-1.13,11.4,11.4,0,0,0-3.51.54,24.63,24.63,0,0,0-3.23,1.27l-1.64-3.62a17.37,17.37,0,0,1,4.24-1.54,19.13,19.13,0,0,1,4.36-.53q4.55,0,6.86,2c1.54,1.32,2.32,3.4,2.32,6.23v16ZM377.72,270a6.26,6.26,0,0,0,4.43-1.54,5.54,5.54,0,0,0,1.67-4.32V262l-3.06.13a10.5,10.5,0,0,0-5.2,1.2,3.62,3.62,0,0,0-1.63,3.26,3.19,3.19,0,0,0,.95,2.47A4.07,4.07,0,0,0,377.72,270Z"></path><path d="M404.83,269.74a12.59,12.59,0,0,0,3.71-.58V273a10.12,10.12,0,0,1-2.17.61,14.5,14.5,0,0,1-2.75.25q-7.19,0-7.19-7.58V253.4h-3.26v-2.24l3.49-1.85,1.73-5h3.12v5.3h6.79v3.83h-6.79v12.76a3.61,3.61,0,0,0,.92,2.71A3.34,3.34,0,0,0,404.83,269.74Z"></path><path d="M413,243.26a2.8,2.8,0,0,1,.74-2.09,2.89,2.89,0,0,1,2.12-.74,2.83,2.83,0,0,1,2.08.74,2.77,2.77,0,0,1,.75,2.09,2.72,2.72,0,0,1-.75,2,2.79,2.79,0,0,1-2.08.75,2.86,2.86,0,0,1-2.12-.75A2.75,2.75,0,0,1,413,243.26Zm5.36,30.14H413.3V249.57h5.06Z"></path><path d="M446.57,273.4h-5.09V258.75a6.43,6.43,0,0,0-1.11-4.12,4.29,4.29,0,0,0-3.52-1.35,5.62,5.62,0,0,0-4.7,1.89q-1.48,1.91-1.48,6.36V273.4H425.6V249.57h4l.71,3.12h.26a7,7,0,0,1,3.06-2.62,10.19,10.19,0,0,1,4.39-.93q8.58,0,8.58,8.73Z"></path><path d="M473.74,249.57v2.78l-4.07.75a6.88,6.88,0,0,1,.93,1.86,7.37,7.37,0,0,1,.36,2.32,7.15,7.15,0,0,1-2.54,5.8,10.63,10.63,0,0,1-7,2.11,11.71,11.71,0,0,1-2.07-.17,2.85,2.85,0,0,0-1.64,2.37,1.32,1.32,0,0,0,.76,1.23,6.69,6.69,0,0,0,2.82.41h4.16a9.28,9.28,0,0,1,6,1.68,5.91,5.91,0,0,1,2,4.85,7.05,7.05,0,0,1-3.34,6.25q-3.33,2.19-9.65,2.19c-3.25,0-5.72-.57-7.43-1.72a5.58,5.58,0,0,1-2.57-4.91,5.22,5.22,0,0,1,1.39-3.7,7.45,7.45,0,0,1,3.89-2.08,3.86,3.86,0,0,1-1.67-1.39,3.5,3.5,0,0,1-.66-2,3.46,3.46,0,0,1,.76-2.27,9,9,0,0,1,2.24-1.83,6.61,6.61,0,0,1-3-2.59,7.65,7.65,0,0,1-1.15-4.22,7.56,7.56,0,0,1,2.45-6q2.44-2.13,7-2.13a17.67,17.67,0,0,1,2.12.14,12.77,12.77,0,0,1,1.67.29ZM455,277.11a2.79,2.79,0,0,0,1.47,2.52,8.13,8.13,0,0,0,4.15.88,12.52,12.52,0,0,0,6.16-1.18,3.56,3.56,0,0,0,2-3.15,2.37,2.37,0,0,0-1.11-2.21,8.93,8.93,0,0,0-4.13-.65h-3.83a5.4,5.4,0,0,0-3.46,1A3.33,3.33,0,0,0,455,277.11Zm2.17-19.83a4.78,4.78,0,0,0,1.16,3.45,4.32,4.32,0,0,0,3.3,1.21q4.39,0,4.4-4.7a5.31,5.31,0,0,0-1.09-3.59,4.13,4.13,0,0,0-3.31-1.26,4.29,4.29,0,0,0-3.33,1.25A5.29,5.29,0,0,0,457.19,257.28Z"></path><path d="M508.33,264.85a7.93,7.93,0,0,1-3,6.59q-3,2.38-8.38,2.39a19.93,19.93,0,0,1-8.75-1.66V267.3a23.38,23.38,0,0,0,4.58,1.6,19.24,19.24,0,0,0,4.51.58,7.21,7.21,0,0,0,4.51-1.16,3.81,3.81,0,0,0,1.46-3.13,3.91,3.91,0,0,0-1.34-3,20.1,20.1,0,0,0-5.51-2.91,14.58,14.58,0,0,1-6.08-4,8.42,8.42,0,0,1-1.77-5.39,7.57,7.57,0,0,1,2.8-6.2,11.62,11.62,0,0,1,7.52-2.26,22.13,22.13,0,0,1,9,2l-1.64,4.2a19.64,19.64,0,0,0-7.49-1.77,5.8,5.8,0,0,0-3.8,1.09,3.59,3.59,0,0,0-1.29,2.88,4,4,0,0,0,.52,2.1,5.27,5.27,0,0,0,1.7,1.65,28.7,28.7,0,0,0,4.27,2,23.41,23.41,0,0,1,5.08,2.7,7.82,7.82,0,0,1,2.37,2.82A8.53,8.53,0,0,1,508.33,264.85Z"></path><path d="M510.26,249.57h5.52l4.85,13.51a25.51,25.51,0,0,1,1.46,5.43h.18a22,22,0,0,1,.71-2.88q.51-1.68,5.47-16.06h5.47l-10.19,27Q521,284,514.47,284a14.85,14.85,0,0,1-3.28-.36v-4a12,12,0,0,0,2.61.26q3.66,0,5.15-4.25l.88-2.24Z"></path><path d="M553.55,266.61A6.22,6.22,0,0,1,551,272q-2.53,1.86-7.28,1.86a17.21,17.21,0,0,1-7.65-1.44V268A18.67,18.67,0,0,0,543.9,270q4.68,0,4.68-2.82a2.27,2.27,0,0,0-.52-1.51,6.21,6.21,0,0,0-1.7-1.25,28.45,28.45,0,0,0-3.3-1.46q-4.11-1.61-5.57-3.19a5.9,5.9,0,0,1-1.46-4.14,5.45,5.45,0,0,1,2.47-4.75,11.69,11.69,0,0,1,6.71-1.69,19.1,19.1,0,0,1,8,1.7l-1.64,3.81a17.75,17.75,0,0,0-6.49-1.59q-4,0-4,2.28a2.3,2.3,0,0,0,1.05,1.9,22.76,22.76,0,0,0,4.56,2.13,21.93,21.93,0,0,1,4.29,2.09,5.79,5.79,0,0,1,2.62,5.15Z"></path><path d="M567.9,269.74a12.59,12.59,0,0,0,3.71-.58V273a10.18,10.18,0,0,1-2.16.61,14.58,14.58,0,0,1-2.75.25q-7.2,0-7.2-7.58V253.4h-3.25v-2.24l3.49-1.85,1.72-5h3.13v5.3h6.78v3.83h-6.78v12.76a3.61,3.61,0,0,0,.91,2.71A3.34,3.34,0,0,0,567.9,269.74Z"></path><path d="M586.78,273.83q-5.55,0-8.69-3.24T575,261.66q0-5.84,2.91-9.18a10,10,0,0,1,8-3.34,9.81,9.81,0,0,1,7.45,2.86,11,11,0,0,1,2.74,7.89v2.74H580.17A7.8,7.8,0,0,0,582,268a6.55,6.55,0,0,0,5,1.86,18.7,18.7,0,0,0,3.93-.39,20.79,20.79,0,0,0,3.91-1.33v4.12a15.6,15.6,0,0,1-3.75,1.25A23.36,23.36,0,0,1,586.78,273.83ZM585.86,253A5.09,5.09,0,0,0,582,254.5a7.32,7.32,0,0,0-1.74,4.46h10.82a6.62,6.62,0,0,0-1.42-4.47A4.88,4.88,0,0,0,585.86,253Z"></path><path d="M621.88,273.4H616.8V258.71a6.67,6.67,0,0,0-1-4.09,3.8,3.8,0,0,0-3.23-1.34,4.93,4.93,0,0,0-4.3,1.9q-1.37,1.9-1.37,6.35V273.4H601.8V249.57h4l.72,3.12h.25a6.61,6.61,0,0,1,2.88-2.62,9.26,9.26,0,0,1,4.15-.93q5.49,0,7.28,3.75h.35a7.21,7.21,0,0,1,3-2.76,9.45,9.45,0,0,1,4.4-1q4.26,0,6.21,2.15t1.95,6.58V273.4h-5.06V258.71a6.6,6.6,0,0,0-1.05-4.09,3.82,3.82,0,0,0-3.24-1.34,5,5,0,0,0-4.32,1.84q-1.37,1.85-1.37,5.65Z"></path><path d="M93.87,108.65c-7.78,27.71-14.18,50.95-14.71,54.15a6.66,6.66,0,0,1-6.61,5.75h-.74a6.5,6.5,0,0,1-5.76-7.25c.32-2.56,5.54-21.74,11.83-44.55-8.95,4.15-16.41,6.93-21,7.46-.75.1-1.49.1-2.24.21-4.48,0-6.71-2.13-7.78-4a6.58,6.58,0,0,1,8.53-9.28c4-.53,14-4.68,27.18-11.51C89.18,76,96,52,99.42,40.1a6.6,6.6,0,0,1,12.68,3.63c-4,14.17-8.74,30.7-13.33,46.9,5.66-3.31,11.73-6.93,17.81-10.87,32.93-21.32,55.43-41.68,60-54.69,1.7-4.8.42-7-1.93-8.95-5.76-4.48-23.56-5-56.07,6.82C69.89,40.74,18.29,75.28,13.39,93.29a7.31,7.31,0,0,0,1.5.11A6.63,6.63,0,0,1,16,106.62h-.43c-1.38.1-8.63.21-12.79-4.8A12,12,0,0,1,.39,91.16C3.69,75.81,24.69,59,41.64,47.45A353.47,353.47,0,0,1,114,10.57c23.24-8.52,54.05-16.2,68.65-4.9,6.82,5.33,9.27,13,6.93,21.64-3,11.19-16.21,30.81-62.15,61.08-11.19,7.57-22.92,14.5-33.58,20.26M536.58,99.8c-5.12,14.07-17,46.9-2.24,53.62a6.56,6.56,0,0,1-5.44,11.94c-18.65-8.53-16.31-31.67-11-51-21,24.93-34.11,37.52-44.55,37.52a9.78,9.78,0,0,1-8.11-4.16c-5.65-7.68-1.92-23.24,9-57.46.42-1.18.75-2.34,1.17-3.62-1,1.28-2,2.66-3.09,4.26-6.72,9.59-13.75,21.74-19.83,32.52-4.26,7.46-8,14-11.19,18.75s-7.78,11.94-14.4,9.49a7.84,7.84,0,0,1-4.47-4.37c-1.06-2.45-3.2-7.14,5-40.3,1.39-5.64,3-11.4,4.37-16.63-11.19,9.81-20.89,15.57-29.1,18.77A57.1,57.1,0,0,1,397.46,125c-12.15,24-26.75,35.28-41.14,32-5.54-1.28-9.7-5.22-11.73-11.08-5-14.61,3.73-37.74,23.35-61.83a6.65,6.65,0,0,1,7.46-2c1.39-1.07,2.77-2,4.26-3,5.23-3,9.7-3.73,13.32-2.13,4.6,2.13,7,7,8.43,10.76a47.68,47.68,0,0,1,1.7,6.83c8.43-4.27,19.19-11.84,31.67-25.37,2.66-2.88,7.67-8.21,13.1-4.8s2.88,9.91,1.61,13c-1.71,4.37-8.42,28.26-12.27,46.05,1.29-2.23,2.57-4.47,3.85-6.6,18.33-32,31.33-53,44.45-54a7.07,7.07,0,0,1,6.07,2.66c3.09,4,2,8-4.69,28.79-3.41,10.76-11,34.43-11,43.38,2.44-1.28,6.92-4.47,14.59-12.25,8.11-8.32,16.85-18.87,23.88-27.3,11-13.32,13.43-16,16.52-17a6.78,6.78,0,0,1,7.25,1.6c3.2,3.94,1.93,7.57-1.59,17.27M388.19,113.12a36.28,36.28,0,0,1-6,.11c-6.39-.43-11.62-2.56-14.71-6.07C356.32,125,355.25,137,357,141.8c.75,2.24,1.81,2.45,2.24,2.56,7.78,1.81,17.59-7.57,26.43-25.05a52.79,52.79,0,0,0,2.56-6.19m1.92-13.65a23.36,23.36,0,0,0-2.45-9.59c-3.2,1.28-8.53,6.19-9.7,9a13.15,13.15,0,0,0,6.29,1.28,26.58,26.58,0,0,0,5.86-.65M652,78.69c-17.69,19.62-33,27.5-45,30.17a58.55,58.55,0,0,1-4.16,10C588.7,146.7,575,153.74,564.94,153.74a33.77,33.77,0,0,1-4.59-.43c-5.43-1.17-9.59-4.91-11.62-10.66-5.33-14.92,4-39.65,25-66a6.68,6.68,0,0,1,7.46-2.12c5.23-4.48,12.37-8.43,18.23-5.76,3.52,1.6,6.29,5.11,8.1,10.23a41.5,41.5,0,0,1,2,15.35c8.75-3.2,19.73-10.34,32.63-24.63a6.64,6.64,0,0,1,9.8,9m-59.37,31c-9.49-1.17-16.21-5.54-19.51-9.49a103.08,103.08,0,0,0-9.6,19.09c-2.87,7.88-3.72,14.92-2.34,18.76.64,1.92,1.49,2.13,1.92,2.13,7.89,1.7,18.45-8.53,28-27.4.53-1.06,1.06-2,1.49-3.09m1.7-28.25c-3.62,1.6-9.8,7.57-10.66,10.55,1.39,1.39,5.34,4.16,11.94,4.59h.64c.75-7.14-.64-12.79-1.92-15.14m-33.79-35.6c1.6-6-1.49-11.94-6.82-13.33s-10.88,2.35-12.48,8.32,1.5,11.94,6.83,13.32,11-2.34,12.47-8.31M343.74,71.76c-2.77-1.38-7-1.17-9.59-.75-13.22,1.81-27.83,11-32.83,16.53,1.81.75,4.26,1.71,6.18,2.34,9.48,3.41,22.59,8.1,27.82,19.72,3.2,7.15,3,15.68-1,25.48-11.62,29.31-34.54,36.56-47.44,36.56a26.57,26.57,0,0,1-6.5-.74c-7.78-2.35-13.43-7.14-16.31-14-7.25-17.16,4.9-41.25,6.29-43.91a6.63,6.63,0,0,1,11.73,6.18c-3,5.76-9.92,22.92-5.87,32.62,1.39,3.2,3.84,5.22,7.89,6.5,1.17.32,7.78,1,16-2.88,6.71-3.09,15.89-10,21.86-25.16,2.44-6.28,2.88-11.4,1.16-15.13-3-6.61-12.57-10-20.25-12.69-7.46-2.66-13.32-4.69-15.56-9.91a9.51,9.51,0,0,1,.1-7.78c-18.86,3.2-34,15.24-45.19,35.82a128.39,128.39,0,0,0-10,24.83c-1.81,8.21-3.2,13.86-3.2,14a6.51,6.51,0,0,1-6.39,5.11,3.88,3.88,0,0,1-1.18-.11,6.51,6.51,0,0,1-5.33-7.35,123.65,123.65,0,0,1,3.42-15.24c3.19-14.4,6.28-28.57,8.52-39.66-13.75,18.45-47.44,60.44-70.88,60.55-6.72.11-12.27-3-16.1-8.95a13.35,13.35,0,0,1-1.18-2.14,51.42,51.42,0,0,1-11.4,3c-10.45,1.49-19.72-.64-26.76-6.29a6.59,6.59,0,0,1,8.32-10.23c5.11,4.15,11.83,4.15,16.52,3.52a45.47,45.47,0,0,0,10.55-3c-.1-14.82,6.83-31.88,9.59-38.16,8.21-18.65,22.5-39.33,37.53-41.79,7.14-1.17,13.22,1.17,16.42,6.39,7.24,11.52-2.46,30.39-11.94,44.24-10.88,16-23.88,28.68-37.1,36.57a2.79,2.79,0,0,0,.42.74c1.71,2.56,3.41,3,4.91,2.88,3.73,0,15-2.88,38.69-28.88A351.88,351.88,0,0,0,223,86.47l1.18-1.92c4.48-7.14,7.67-12.36,13.43-11.73a8.06,8.06,0,0,1,6.61,5.66c.53,1.7,1.06,3.19-1.71,18.23,14.5-16.85,33.15-25.8,55-25.91a6.89,6.89,0,0,1,2.56.53c9.06-6.39,21.21-11.61,31.76-13.21,13-1.82,19.73,2.55,23.13,6.61s4.48,11.72-9.81,25.47A6.63,6.63,0,0,1,335.53,81a1.41,1.41,0,0,1,.43-.32,46.61,46.61,0,0,0,7.78-9M151.33,130.39c9.49-6.92,18.76-16.73,27-28.78,13-19,12.79-27.93,11.73-29.63a2.46,2.46,0,0,0-1.93-.53,6.46,6.46,0,0,0-1.38.1c-8.85,1.39-20.57,18.23-27.61,34.11a99.4,99.4,0,0,0-7.78,24.73m485,59H14.67v13.22H636.36Z"></path></svg> 