<svg viewBox="0 0 500 166" xmlns="http://www.w3.org/2000/svg"><path d="M268.572 65.021h11.865V30.614l26.893 34.407h10.679V9.653h-11.865V44.06L279.25 9.653h-10.678V65.02Zm-57.107-27.684c0-9.887 7.91-17.797 17.798-17.797 9.887 0 17.796 7.91 17.796 17.797 0 9.888-7.91 17.797-17.796 17.797a17.723 17.723 0 0 1-17.798-17.797Zm-12.26 0c0 15.82 13.051 28.87 30.058 28.87 17.005 0 30.057-13.05 30.057-28.87s-13.052-28.87-30.057-28.87c-17.007 0-30.058 13.05-30.058 28.87Zm-46.824 20.17s7.119 8.7 21.356 8.7c13.052 0 20.961-7.909 20.961-17.005 0-19.379-27.684-15.029-27.684-24.52 0-3.164 2.373-5.537 8.305-5.537 6.328 0 10.283 4.745 10.283 4.745l7.91-7.91s-6.328-7.514-18.588-7.514c-12.656 0-20.17 7.515-20.17 16.215 0 19.38 27.684 15.03 27.684 24.52 0 3.56-2.768 6.329-9.096 6.329-8.305 0-13.051-5.933-13.051-5.933l-7.91 7.91Zm-36.937-21.752V20.727h12.26c4.35 0 7.515 3.163 7.515 7.514 0 4.35-3.164 7.514-7.515 7.514h-12.26ZM103.58 65.021h11.865V46.83h11.074l9.887 18.192h13.051l-11.469-20.565s9.492-3.56 9.492-16.215c0-11.074-7.514-18.588-19.38-18.588h-24.52V65.02Zm-51.174 0h41.921V53.948H64.27V42.083h22.939V31.405H64.269V20.727h29.266V9.653h-41.13V65.02ZM11.908 35.755V20.727h11.074c4.746 0 7.91 3.163 7.91 7.514 0 4.35-3.164 7.514-7.91 7.514H11.908ZM.043 65.021h11.865V46.83h11.47c11.864 0 19.774-7.91 19.774-18.588S35.242 9.653 23.377 9.653H.043V65.02Zm22.771 19.817c-4.276 0-7.671-3.396-7.671-7.798s3.395-7.797 7.671-7.797c4.277 0 7.672 3.395 7.672 7.797 0 4.402-3.395 7.798-7.672 7.798Zm0 1.257c4.906 0 8.93-4.024 8.93-9.055 0-5.03-4.024-9.055-8.93-9.055-4.904 0-8.93 4.024-8.93 9.055 0 5.03 4.026 9.055 8.93 9.055Zm-17.029-.251h1.258v-16.35h5.785v-1.258H0v1.258h5.785v16.35Zm300.798 37.452h11.865V88.888l26.893 34.408h10.679V67.927h-11.865v34.408L317.26 67.927h-10.678v55.369Zm-57.107-27.684c0-9.888 7.91-17.797 17.798-17.797 9.887 0 17.796 7.91 17.796 17.797s-7.91 17.797-17.796 17.797a17.723 17.723 0 0 1-17.798-17.797Zm-12.26 0c0 15.819 13.051 28.87 30.058 28.87 17.005 0 30.057-13.051 30.057-28.87 0-15.82-13.052-28.871-30.057-28.871-17.007 0-30.058 13.05-30.058 28.87Zm-46.824 20.17s7.119 8.7 21.356 8.7c13.052 0 20.961-7.91 20.961-17.006 0-19.379-27.684-15.028-27.684-24.52 0-3.164 2.373-5.537 8.305-5.537 6.328 0 10.283 4.746 10.283 4.746l7.91-7.91s-6.328-7.514-18.588-7.514c-12.656 0-20.17 7.514-20.17 16.215 0 19.379 27.684 15.029 27.684 24.52 0 3.56-2.768 6.328-9.096 6.328-8.305 0-13.051-5.932-13.051-5.932l-7.91 7.91ZM153.455 94.03V79h12.26c4.35 0 7.515 3.165 7.515 7.515s-3.164 7.515-7.515 7.515h-12.26Zm-11.865 29.266h11.865v-18.192h11.074l9.887 18.192h13.051l-11.469-20.566s9.492-3.56 9.492-16.215c0-11.073-7.514-18.588-19.38-18.588h-24.52v55.369Zm-51.174 0h41.921v-11.074H102.28v-11.865h22.939V89.68H102.28V79h29.266V67.927h-41.13v55.369ZM49.919 94.03V79h11.074c4.746 0 7.91 3.165 7.91 7.515s-3.164 7.515-7.91 7.515H49.919Zm-11.865 29.266H49.92v-18.192h11.47c11.864 0 19.774-7.91 19.774-18.589 0-10.678-7.91-18.588-19.775-18.588H38.054v55.369Zm304.874 24.889h-8.552v-14.966h-2.767v17.607h11.319v-2.641Zm-13.533 0h-8.552v-14.966h-2.767v17.607h11.32v-2.641Zm-14.162 0h-9.935v-5.157h7.671v-2.64h-7.671v-4.528h9.684v-2.641H302.53v17.607h12.702v-2.641Zm-16.929-14.966h-2.767v12.953l-9.684-12.953h-2.515v17.607h2.767v-12.954l9.684 12.954h2.515v-17.607Zm-19.192 0h-2.767v12.953l-9.685-12.953h-2.515v17.607h2.767v-12.954l9.684 12.954h2.516v-17.607Zm-18.061 8.803c0-5.03-4.025-9.055-9.307-9.055s-9.307 4.024-9.307 9.055c0 5.03 4.025 9.055 9.307 9.055s9.307-4.024 9.307-9.055Zm-20.576 0c0-4.779-4.025-8.803-9.181-8.803h-5.91v17.607h5.91c5.156 0 9.181-4.025 9.181-8.804Zm-17.306-8.049-2.263-1.258-2.516 5.408 1.635.881 3.144-5.03Zm-5.861 8.049c0-5.03-4.025-9.055-9.307-9.055s-9.307 4.024-9.307 9.055c0 5.03 4.025 9.055 9.307 9.055s9.307-4.024 9.307-9.055Zm-30.663-8.803h-2.766v7.42H175.2v-7.42h-2.767v17.607h2.767v-7.672h8.678v7.672h2.766v-17.607Zm-16.174 17.607-7.043-17.607h-3.018l-7.043 17.607h2.893l1.76-4.528h7.798l1.76 4.528h2.893Zm-17.683 0-4-7.043s3.371-1.132 3.371-5.03c0-3.145-2.39-5.534-5.785-5.534h-7.294v17.607h2.766v-6.54h4.15l3.648 6.54h3.144Zm-16.803-8.804c0-5.03-4.024-9.055-9.307-9.055-5.282 0-9.306 4.024-9.306 9.055 0 5.03 4.024 9.055 9.306 9.055 5.283 0 9.307-4.024 9.307-9.055Zm-21.708-8.803h-2.767v12.953l-9.684-12.953H99.31v17.607h2.767v-12.954l9.684 12.954h2.515v-17.607Zm-24.828 5.729h-.839v5.366h-7.127v-5.366h-.838v11.738h.838v-5.534h7.127v5.534h.839v-11.738Zm-10.682 0h-8.553v.838h3.857v10.9h.839v-10.9h3.857v-.838Zm-11.27 11.738h.84v-11.738h-.84v11.738Zm-1.962-11.738h-.922l-3.27 10.397-3.354-10.397h-.838l-3.354 10.397-3.27-10.397h-.922l3.773 11.738h.838l3.354-10.397 3.354 10.397h.838l3.773-11.738Zm-27.573 18.586h319.18V125.67H37.963v31.863Zm108.412-21.8h-4.528v6.036h4.528c1.76 0 3.018-1.257 3.018-3.018 0-1.76-1.257-3.019-3.018-3.019Zm-19.696-.252a6.495 6.495 0 0 0-6.54 6.54 6.495 6.495 0 0 0 6.54 6.54 6.495 6.495 0 0 0 6.54-6.54 6.495 6.495 0 0 0-6.54-6.54Zm32.348 8.3h5.786l-2.893-7.293-2.893 7.294Zm48.975-8.3a6.495 6.495 0 0 0-6.54 6.54 6.495 6.495 0 0 0 6.54 6.54 6.495 6.495 0 0 0 6.54-6.54 6.495 6.495 0 0 0-6.54-6.54Zm23.293.251h-3.144v12.577h3.144c3.647 0 6.414-2.766 6.414-6.288 0-3.521-2.767-6.289-6.414-6.289Zm26.99 6.289a6.495 6.495 0 0 1-6.54 6.54 6.495 6.495 0 0 1-6.54-6.54 6.495 6.495 0 0 1 6.54-6.54 6.495 6.495 0 0 1 6.54 6.54Z" fill="#F2F2F2" fill-rule="evenodd"/></svg>